<svg xmlns="http://www.w3.org/2000/svg" width="800" height="450" viewBox="0 0 800 450">
  <rect width="800" height="450" fill="#eff6ff"/>
  <circle cx="96" cy="72" r="180" fill="#60a5fa" opacity=".18"/>
  <rect x="38" y="38" width="724" height="374" rx="24" fill="#f8fbff" stroke="#c7d2fe"/>
  <text x="70" y="92" fill="#0f1b3d" font-family="Arial" font-size="34" font-weight="900">Academy Progress Map</text>
  <text x="70" y="122" fill="#496085" font-family="Arial" font-size="15">Карта обучения и прогресса</text>
  <rect x="70" y="150" width="250" height="104" rx="24" fill="#ffffff" stroke="#c7d2fe"/>
  <rect x="70" y="192.7" width="18" height="51.300000000000004" rx="8" fill="#60a5fa" opacity="0.45"/><rect x="98" y="184.6" width="18" height="59.400000000000006" rx="8" fill="#60a5fa" opacity="0.51"/><rect x="126" y="175.14999999999998" width="18" height="68.85000000000001" rx="8" fill="#60a5fa" opacity="0.5700000000000001"/><rect x="154" y="169.75" width="18" height="74.25" rx="8" fill="#60a5fa" opacity="0.63"/><rect x="182" y="158.95" width="18" height="85.05000000000001" rx="8" fill="#60a5fa" opacity="0.69"/><rect x="210" y="146.8" width="18" height="97.2" rx="8" fill="#60a5fa" opacity="0.75"/><rect x="238" y="137.35" width="18" height="106.65" rx="8" fill="#60a5fa" opacity="0.81"/>
  <rect x="362" y="84" width="336" height="218" rx="24" fill="#eff6ff" opacity=".78" stroke="#c7d2fe"/>
  <rect x="384" y="116" width="292" height="34" rx="12" fill="#ffffff" stroke="#c7d2fe"/>
<rect x="400" y="128" width="64" height="8" rx="4" fill="#60a5fa"/>
<text x="520" y="138" fill="#496085" font-size="10" font-family="Arial">Открыт</text><rect x="384" y="162" width="292" height="34" rx="12" fill="#ffffff" stroke="#c7d2fe"/>
<rect x="400" y="174" width="98" height="8" rx="4" fill="#60a5fa"/>
<text x="520" y="184" fill="#496085" font-size="10" font-family="Arial">На проверке</text><rect x="384" y="208" width="292" height="34" rx="12" fill="#ffffff" stroke="#c7d2fe"/>
<rect x="400" y="220" width="132" height="8" rx="4" fill="#60a5fa"/>
<text x="520" y="230" fill="#496085" font-size="10" font-family="Arial">Риск</text><rect x="384" y="254" width="292" height="34" rx="12" fill="#ffffff" stroke="#c7d2fe"/>
<rect x="400" y="266" width="166" height="8" rx="4" fill="#60a5fa"/>
<text x="520" y="276" fill="#496085" font-size="10" font-family="Arial">Закрыт</text>
  <path d="M80 306 H640" stroke="#c7d2fe" stroke-width="4"/><circle cx="110" cy="306" r="18" fill="#60a5fa"/><circle cx="250" cy="306" r="18" fill="#60a5fa"/><circle cx="390" cy="306" r="18" fill="#60a5fa"/><circle cx="530" cy="306" r="18" fill="#60a5fa"/>
  <text x="70" y="382" fill="#60a5fa" font-family="Arial" font-size="18" font-weight="900">Learning map</text>
</svg>
