<svg xmlns="http://www.w3.org/2000/svg" width="800" height="450" viewBox="0 0 800 450">
  <rect width="800" height="450" fill="#fbf7ff"/>
  <circle cx="96" cy="72" r="180" fill="#c084fc" opacity=".18"/>
  <rect x="38" y="38" width="724" height="374" rx="24" fill="#ffffff" stroke="#ead7ff"/>
  <text x="70" y="92" fill="#271133" font-family="Arial" font-size="34" font-weight="900">Content Calendar Ops</text>
  <text x="70" y="122" fill="#78558d" font-family="Arial" font-size="15">Контент-план и публикации</text>
  <rect x="70" y="150" width="250" height="104" rx="24" fill="#ffffff" stroke="#ead7ff"/>
  <rect x="70" y="222.4" width="18" height="21.6" rx="8" fill="#c084fc" opacity="0.45"/><rect x="98" y="211.6" width="18" height="32.400000000000006" rx="8" fill="#c084fc" opacity="0.51"/><rect x="126" y="202.15" width="18" height="41.85" rx="8" fill="#c084fc" opacity="0.5700000000000001"/><rect x="154" y="183.25" width="18" height="60.75000000000001" rx="8" fill="#c084fc" opacity="0.63"/><rect x="182" y="172.45" width="18" height="71.55000000000001" rx="8" fill="#c084fc" opacity="0.69"/><rect x="210" y="152.2" width="18" height="91.80000000000001" rx="8" fill="#c084fc" opacity="0.75"/><rect x="238" y="140.05" width="18" height="103.95" rx="8" fill="#c084fc" opacity="0.81"/>
  <rect x="362" y="84" width="336" height="218" rx="24" fill="#fbf7ff" opacity=".78" stroke="#ead7ff"/>
  <rect x="384" y="116" width="292" height="34" rx="12" fill="#ffffff" stroke="#ead7ff"/>
<rect x="400" y="128" width="64" height="8" rx="4" fill="#c084fc"/>
<text x="520" y="138" fill="#78558d" font-size="10" font-family="Arial">Редактура</text><rect x="384" y="162" width="292" height="34" rx="12" fill="#ffffff" stroke="#ead7ff"/>
<rect x="400" y="174" width="98" height="8" rx="4" fill="#c084fc"/>
<text x="520" y="184" fill="#78558d" font-size="10" font-family="Arial">Идея</text><rect x="384" y="208" width="292" height="34" rx="12" fill="#ffffff" stroke="#ead7ff"/>
<rect x="400" y="220" width="132" height="8" rx="4" fill="#c084fc"/>
<text x="520" y="230" fill="#78558d" font-size="10" font-family="Arial">Готовится</text><rect x="384" y="254" width="292" height="34" rx="12" fill="#ffffff" stroke="#ead7ff"/>
<rect x="400" y="266" width="166" height="8" rx="4" fill="#c084fc"/>
<text x="520" y="276" fill="#78558d" font-size="10" font-family="Arial">Опубликовано</text>
  <rect x="70" y="286" width="260" height="58" rx="24" fill="#c084fc" opacity=".92"/>
  <text x="70" y="382" fill="#c084fc" font-family="Arial" font-size="18" font-weight="900">Editorial desk</text>
</svg>
