<svg xmlns="http://www.w3.org/2000/svg" width="800" height="450" viewBox="0 0 800 450">
  <rect width="800" height="450" fill="#f5f7fb"/>
  <circle cx="96" cy="72" r="180" fill="#22c55e" opacity=".18"/>
  <rect x="38" y="38" width="724" height="374" rx="24" fill="#ffffff" stroke="#d9e2ec"/>
  <text x="70" y="92" fill="#101828" font-family="Arial" font-size="34" font-weight="900">Hiring Pipeline Lab</text>
  <text x="70" y="122" fill="#667085" font-family="Arial" font-size="15">Воронка найма с авто-сортировкой</text>
  <rect x="70" y="150" width="250" height="104" rx="24" fill="#ffffff" stroke="#d9e2ec"/>
  <rect x="70" y="219.7" width="18" height="24.3" rx="8" fill="#22c55e" opacity="0.45"/><rect x="98" y="202.15" width="18" height="41.85" rx="8" fill="#22c55e" opacity="0.51"/><rect x="126" y="208.9" width="18" height="35.1" rx="8" fill="#22c55e" opacity="0.5700000000000001"/><rect x="154" y="173.8" width="18" height="70.2" rx="8" fill="#22c55e" opacity="0.63"/><rect x="182" y="153.55" width="18" height="90.45" rx="8" fill="#22c55e" opacity="0.69"/><rect x="210" y="161.64999999999998" width="18" height="82.35000000000001" rx="8" fill="#22c55e" opacity="0.75"/><rect x="238" y="144.1" width="18" height="99.9" rx="8" fill="#22c55e" opacity="0.81"/>
  <rect x="362" y="84" width="336" height="218" rx="24" fill="#f5f7fb" opacity=".78" stroke="#d9e2ec"/>
  <rect x="384" y="116" width="292" height="34" rx="12" fill="#ffffff" stroke="#d9e2ec"/>
<rect x="400" y="128" width="64" height="8" rx="4" fill="#22c55e"/>
<text x="520" y="138" fill="#667085" font-size="10" font-family="Arial">Скрининг</text><rect x="384" y="162" width="292" height="34" rx="12" fill="#ffffff" stroke="#d9e2ec"/>
<rect x="400" y="174" width="98" height="8" rx="4" fill="#22c55e"/>
<text x="520" y="184" fill="#667085" font-size="10" font-family="Arial">Новый</text><rect x="384" y="208" width="292" height="34" rx="12" fill="#ffffff" stroke="#d9e2ec"/>
<rect x="400" y="220" width="132" height="8" rx="4" fill="#22c55e"/>
<text x="520" y="230" fill="#667085" font-size="10" font-family="Arial">Интервью</text><rect x="384" y="254" width="292" height="34" rx="12" fill="#ffffff" stroke="#d9e2ec"/>
<rect x="400" y="266" width="166" height="8" rx="4" fill="#22c55e"/>
<text x="520" y="276" fill="#667085" font-size="10" font-family="Arial">Оффер</text>
  <rect x="70" y="286" width="260" height="58" rx="24" fill="#22c55e" opacity=".92"/>
  <text x="70" y="382" fill="#22c55e" font-family="Arial" font-size="18" font-weight="900">Talent desk</text>
</svg>
